<svg id="Calque_1" data-name="Calque 1" xmlns="http://www.w3.org/2000/svg" viewBox="0 0 251.01 256.16"><defs><style>.cls-1{fill:#c8e7f2}.cls-3{fill:#003f4e}.cls-4{fill:#404042}</style></defs><path class="cls-1" d="M303.87 388.42A125.51 125.51 0 0 0 200.2 584.66c2.13 3.12 4.4 6.15 6.8 9.06.81 1 1.64 1.95 2.48 2.9a125.84 125.84 0 0 0 9.83 10c2.94-.38 6-.7 9.24-.92 23.69-1.66 53.74 1.86 75.33 24 21.58-22.11 51.64-25.63 75.33-24 3.21.22 6.3.54 9.23.92a125.84 125.84 0 0 0 9.83-10c.84-1 1.67-1.92 2.48-2.9 2.4-2.91 4.67-5.94 6.8-9.06a125.51 125.51 0 0 0-103.68-196.24zm2.56 244.24h-5.1c-18.45-16.57-42.64-20.66-63.69-20.15-3.65.09-7.2.32-10.61.64q2.76 2.15 5.64 4.12a138.7 138.7 0 0 1 15.19 1.4c17.78 2.67 29.23 8.31 35.38 12.23a45.18 45.18 0 0 1 4 2.82 4.14 4.14 0 0 1 1.57 3.26 4.16 4.16 0 0 0 .31 1.58 126.83 126.83 0 0 0 29.49 0 4.16 4.16 0 0 0 .31-1.58 4.14 4.14 0 0 1 1.57-3.26 45.18 45.18 0 0 1 4-2.82c6.15-3.92 17.6-9.56 35.38-12.23a138.7 138.7 0 0 1 15.19-1.4q2.88-2 5.64-4.12c-3.41-.32-7-.55-10.61-.64-21.03-.51-45.22 3.58-63.66 20.15z" transform="translate(-178.37 -385.01)"/><path d="M209.48 586a114.76 114.76 0 0 1-6.57-9.51 118.77 118.77 0 1 1 201.93 0 114.76 114.76 0 0 1-6.57 9.51" transform="translate(-178.37 -385.01)" style="fill:none;stroke:#003f4e;stroke-miterlimit:10;stroke-width:2px"/><path class="cls-3" d="M416.93 613a152.91 152.91 0 0 0-28.49-6.32c-2.93-.38-6-.7-9.23-.92-23.69-1.66-53.75 1.86-75.33 24 0 0 20.64-41.6 86.3-34.21 2.62.29 5.32.67 8.09 1.12 1.19.2 2.39.41 3.61.64l-1.13-3.54-2.48-7.77-24.15-75.36s-42.82 0-63.89 26.09L303.88 619l-6.36-82.28c-21.07-26.09-63.89-26.09-63.89-26.09L209.48 586l-2.48 7.72-1.13 3.54c1.22-.23 2.42-.44 3.61-.64 2.77-.45 5.47-.83 8.09-1.12 65.66-7.39 86.31 34.21 86.31 34.21-21.59-22.11-51.64-25.63-75.33-24-3.21.22-6.3.54-9.24.92a152.91 152.91 0 0 0-28.49 6.37l9.38-28.32 2.71-8.18 24-72.54c42.82-4.68 76.94 27.76 76.94 27.76s34.11-32.44 76.93-27.76l24 72.54 2.71 8.18z" transform="translate(-178.37 -385.01)"/><path class="cls-1" d="M416.93 620.68a189.55 189.55 0 0 0-41.85-3.41 138.7 138.7 0 0 0-15.19 1.4c-17.78 2.67-29.23 8.31-35.38 12.23a45.18 45.18 0 0 0-4 2.82 4.14 4.14 0 0 0-1.57 3.26 4.18 4.18 0 0 1-4.19 4.18H293a4.18 4.18 0 0 1-4.19-4.18 4.14 4.14 0 0 0-1.57-3.26 45.18 45.18 0 0 0-4-2.82c-6.15-3.92-17.6-9.56-35.38-12.23a138.7 138.7 0 0 0-15.19-1.4 189.55 189.55 0 0 0-41.85 3.41 165.75 165.75 0 0 1 36.18-7.53c3.41-.32 7-.55 10.61-.64 21.05-.51 45.24 3.58 63.69 20.15q1.29 1.15 2.55 2.4 1.26-1.24 2.55-2.4c18.44-16.57 42.63-20.66 63.68-20.15 3.65.09 7.2.32 10.61.64a165.75 165.75 0 0 1 36.24 7.53z" transform="translate(-178.37 -385.01)"/><path class="cls-3" d="m316.56 542.63-.81-.6c.17-.23 4.25-5.6 13.64-10.93 8.61-4.89 23.61-10.61 45.73-10.1v1c-21.9-.52-36.64 5.12-45.16 9.94-9.25 5.22-13.36 10.63-13.4 10.69zM316.56 555.24l-.81-.61c.18-.23 4.5-5.93 14.45-11.56 9.15-5.19 25-11.25 48.43-10.7v1c-23.2-.54-38.83 5.43-47.86 10.54-9.77 5.53-14.17 11.27-14.21 11.33zM316.56 567.93l-.81-.6c.19-.25 4.79-6.3 15.36-12.3 9.74-5.51 26.59-12 51.54-11.38v1c-24.72-.57-41.39 5.8-51 11.25-10.44 5.9-15.05 11.97-15.09 12.03zM316.56 580.5l-.81-.61c.2-.26 5-6.61 16.11-12.89 10.21-5.79 27.88-12.56 54.05-11.94v1c-25.94-.61-43.43 6.08-53.53 11.8-10.94 6.19-15.77 12.57-15.82 12.64zM316.56 593.28l-.81-.6c.22-.28 5.34-7 17.14-13.72 10.87-6.16 29.67-13.37 57.53-12.71v1c-27.63-.65-46.26 6.47-57 12.57-11.66 6.6-16.81 13.39-16.86 13.46zM291.18 542.63c0-.06-4.15-5.47-13.38-10.68-8.52-4.82-23.27-10.46-45.16-9.94v-1c22.14-.52 37.09 5.21 45.73 10.1 9.39 5.33 13.47 10.7 13.64 10.93zM291.18 555.24c0-.06-4.4-5.8-14.18-11.33-9-5.11-24.68-11.08-47.87-10.54v-1c23.45-.56 39.29 5.51 48.44 10.7 9.94 5.63 14.26 11.33 14.44 11.56zM291.18 567.93c0-.06-4.69-6.17-15.1-12.06-9.62-5.44-26.27-11.8-51-11.22v-1c25-.59 41.79 5.87 51.53 11.38 10.58 6 15.17 12.05 15.36 12.3zM291.18 580.5c0-.07-4.92-6.48-15.85-12.66-10.09-5.71-27.56-12.38-53.47-11.77v-1c26.18-.62 43.84 6.15 54 11.94 11.09 6.28 15.91 12.63 16.11 12.89zM291.18 593.28c-.05-.07-5.24-6.9-16.88-13.48-10.75-6.08-29.37-13.19-57-12.54v-1c27.87-.66 46.66 6.55 57.53 12.71 11.8 6.69 16.92 13.44 17.14 13.72z" transform="translate(-178.37 -385.01)"/><path class="cls-4" d="M296.55 480.8c-2.2 0-4.4-1.41-6.55-4.17l.68-.55c2.14 2.7 4.22 4 6.24 3.8 2.75-.25 4.53-3.06 4.9-3.61v-12.55h.85v12.79l-.06.12c-.06.19-2.14 3.92-5.63 4.17z" transform="translate(-178.37 -385.01)"/><path class="cls-4" d="M307.88 480.8c-2.15 0-4.17-1.41-6-4.17l.73-.48c1.65 2.5 3.43 3.79 5.27 3.79 3.18 0 5.69-3.73 5.69-3.79l.73.48c-.12.13-2.75 4.17-6.42 4.17zM310.75 465.5l-.12-1.05c.55-.06 53.43-6.61 74.24 0l-.3 1c-20.57-6.56-73.27-.08-73.82.05zM381.26 492.55c-17.81-12.24-70.14-21.24-70.63-21.36l.18-1c.55.06 53.07 9.12 71.06 21.48zM384.08 479.45c-19.41-9.61-72.47-11-73-11v-1c.55 0 53.8 1.47 73.39 11.14z" transform="translate(-178.37 -385.01)"/><path d="m307.57 461.76-3.67 6.37a2 2 0 0 1-3.43 0l-3.67-6.37a2 2 0 0 1 1.71-3h7.35a2 2 0 0 1 1.71 3z" transform="translate(-178.37 -385.01)" style="fill:#813132"/><path class="cls-4" d="M293.49 465.25c-.55-.06-53.18-6.61-73.81 0l-.31-1c20.81-6.61 73.69-.06 74.25 0zM220.17 479.45l-.43-.92c19.59-9.67 72.83-11.14 73.39-11.14v1c-.49-.02-53.56 1.45-72.96 11.06zM223 492.3l-.55-.85c18-12.37 70.51-21.43 71.06-21.49l.19 1c-.57.11-52.91 9.1-70.7 21.34z" transform="translate(-178.37 -385.01)"/><path d="M276.16 538.38c0 9.85.15 19.11.15 21.91a6.35 6.35 0 0 1-.36 2.1 32.25 32.25 0 0 1-.07 4.61c0 .37 2.13 1.32 2.14 1.7 11.57 4.62 14.78 22.44 26.41 22.26 10-.16 19.59-21.28 29.19-23.79.06-.19.17-.81.48-.43-.13-1 .47.28.63-.75 0-.12 0 .13 0 0a18.4 18.4 0 0 1 .22-4.5 7.07 7.07 0 0 1-.12-1.2c0-4 .15-16.62.15-32.35 0-11-3.67-18.09-7.94-21.77 26.18-2.94 53.68-12.94 53.68-58.08a45.5 45.5 0 0 0-12.06-31.62c1.17-2.94 5.29-15-1.18-31.18 0 0-9.85-3.23-32.35 12.06a110.92 110.92 0 0 0-58.82 0C253.81 382.2 244 385.29 244 385.29c-6.47 16.18-2.35 28.24-1.17 31.18a45.77 45.77 0 0 0-12.06 31.62c0 45 27.35 55.14 53.53 58.08-3.38 2.94-6.47 8.09-7.5 15.74" transform="translate(-178.37 -385.01)" style="fill-rule:evenodd;fill:#003f4e"/></svg>